<?xml version="1.0" encoding="utf-8"?>
<!-- Generator: Adobe Illustrator 23.0.1, SVG Export Plug-In . SVG Version: 6.00 Build 0)  -->
<svg version="1.1" xmlns="http://www.w3.org/2000/svg" xmlns:xlink="http://www.w3.org/1999/xlink" x="0px" y="0px"
	 viewBox="0 0 512 512" style="enable-background:new 0 0 512 512;" xml:space="preserve">
<style type="text/css">
	.st0{fill:none;stroke:#666666;stroke-width:2;stroke-miterlimit:10;}
	.st1{fill:#FFFFFF;}
	.st2{fill:#FF0303;}
</style>
<g id="Layer_1">
	<rect x="64" width="384" height="512"/>
	<rect x="0" y="64" width="64" height="384.25"/>
	<rect x="448" y="64" width="64" height="384.25"/>
</g>
<g id="Layer_2">
	<line class="st0" x1="64" y1="0" x2="64" y2="512"/>
	<line class="st0" x1="128" y1="512" x2="128" y2="0"/>
	<line class="st0" x1="192" y1="512" x2="192" y2="0"/>
	<line class="st0" x1="256" y1="0" x2="256.5" y2="512"/>
	<line class="st0" x1="320" y1="512" x2="320" y2="0"/>
	<line class="st0" x1="384" y1="0" x2="384" y2="512"/>
	<line class="st0" x1="448" y1="512" x2="448" y2="0"/>
	<line class="st0" x1="0" y1="448" x2="512" y2="448"/>
	<line class="st0" x1="512" y1="384" x2="0" y2="384"/>
	<line class="st0" x1="512" y1="320" x2="0" y2="320"/>
	<line class="st0" x1="0" y1="256" x2="512" y2="255.5"/>
	<line class="st0" x1="512" y1="192" x2="0" y2="192"/>
	<line class="st0" x1="0" y1="128" x2="512" y2="128"/>
	<line class="st0" x1="512" y1="64" x2="0" y2="64"/>
</g>
<g id="Layer_5">
	<ellipse class="st1" cx="288" cy="416.25" rx="32" ry="32.25"/>
	<ellipse class="st1" cx="160" cy="479.75" rx="32" ry="32.25"/>
	<ellipse class="st1" cx="416" cy="352.25" rx="32" ry="32.25"/>
	<rect x="184" y="298.04" class="st1" width="8" height="181.71"/>
	<rect x="312" y="241.27" class="st1" width="8" height="174.98"/>
	<rect x="440" y="184.18" class="st1" width="8" height="168.07"/>
	<polygon class="st1" points="448,191.5 184,309.04 184,291.04 448,173.5 	"/>
	<circle class="st2" cx="416" cy="352.25" r="18"/>
	<polygon class="st2" points="160,459.84 176,491.84 144,491.84 	"/>
	<polygon class="st2" points="307.91,416.25 275.91,432.25 275.91,400.25 	"/>
</g>
<g id="Layer_6">
	<path class="st1" d="M99.86,106.41c-2.01,0-3.86-1.08-3.86-3.86c0-2.78,1.85-3.86,3.86-3.86h15.19v15.19
		c0,7.48-5.01,12.11-12.34,12.11H89.44c-3.55,0-6.17-0.62-8.87-3.08c-3.09-2.78-3.62-5.63-3.62-9.49V94.15
		c0-4.94,1.08-7.48,4.01-11.26l9.1-11.65c3.09-3.93,5.78-5.24,10.8-5.24h10.33c2.01,0,3.86,1.08,3.86,3.86
		c0,2.78-1.85,3.86-3.86,3.86h-9.25c-4.24,0-3.93-0.08-6.48,3.16l-8.41,10.72c-2.39,3.01-2.39,6.25-2.39,10.03v15.12
		c0,4.24,0.92,5.55,5.32,5.55h12.26c2.78,0,5.09-0.62,5.09-4.01v-7.87H99.86z"/>
	<path class="st1" d="M148.66,122.14c0,2.47-1.08,3.86-3.86,3.86s-3.86-1.39-3.86-3.86V66h25.91c6.09,0,12.19,4.32,12.19,11.18v5.32
		c0,7.25-6.02,10.95-12.19,10.95h-7.09l17.35,24.83c0.85,1.16,1.93,2.62,1.93,4.09c0,2.16-1.77,3.62-3.93,3.62
		c-1.54,0-2.55-0.93-3.39-2.16l-21.29-30.39h-1.77V122.14z M148.66,85.74h17.12c2.16,0,5.55-0.15,5.55-3.24v-5.32
		c0-3.08-3.16-3.47-5.48-3.47h-17.2V85.74z"/>
	<path class="st1" d="M227.86,118.29h11.34c2.01,0,3.86,1.08,3.86,3.86c0,2.78-1.85,3.86-3.86,3.86h-30.39
		c-2.01,0-3.86-1.08-3.86-3.86c0-2.78,1.85-3.86,3.86-3.86h11.34V73.71h-11.34c-2.01,0-3.86-1.08-3.86-3.86
		c0-2.78,1.85-3.86,3.86-3.86h30.39c2.01,0,3.86,1.08,3.86,3.86c0,2.78-1.85,3.86-3.86,3.86h-11.34V118.29z"/>
	<path class="st1" d="M276.51,73.71h-2.85c-2.54,0-4.7-0.93-4.7-3.86c0-2.78,2.08-3.86,4.47-3.86h12.88c6.02,0,9.02,2.47,11.65,7.71
		l6.79,13.57c1.54,3.16,2.31,5.4,2.31,8.95c0,3.09-0.85,5.71-2.24,8.48l-7.02,14.04c-2.7,5.48-6.17,7.25-12.18,7.25h-12.8
		c-2.01,0-3.86-1.08-3.86-3.86c0-2.78,1.85-3.86,3.86-3.86h3.7V73.71z M284.22,118.29h1.47c3.24,0,4.01-0.39,5.4-3.24l6.79-13.73
		c0.85-1.77,1.47-3.08,1.47-5.01c0-2.62-0.85-4.09-1.93-6.32l-6.4-13.03c-1.62-3.32-2.31-3.24-5.86-3.24h-0.93V118.29z"/>
	<path class="st1" d="M84.68,137.74v2.77c0,2.46-1.08,3.85-3.85,3.85c-2.77,0-3.85-1.39-3.85-3.85v-10.47h38.05v10.47
		c0,2.46-1.08,3.85-3.85,3.85c-2.77,0-3.85-1.39-3.85-3.85v-2.77h-7.47v48.37c0,2.46-1.08,3.85-3.85,3.85
		c-2.77,0-3.85-1.39-3.85-3.85v-48.37H84.68z"/>
	<path class="st1" d="M153.45,189.96c-3.85,0-6.86-0.92-9.55-3.93c-2.54-2.85-2.93-5.62-2.93-9.17v-42.98
		c0-2.46,1.08-3.85,3.85-3.85s3.85,1.39,3.85,3.85v42.98c0,4.31,1.31,5.39,4.78,5.39h13.09c3.47,0,4.78-1.08,4.78-5.39v-42.98
		c0-2.46,1.08-3.85,3.85-3.85s3.85,1.39,3.85,3.85v42.98c0,3.54-0.39,6.32-2.93,9.17c-2.7,3-5.7,3.93-9.55,3.93H153.45z"/>
	<path class="st1" d="M235.36,133.93c0-2.46,1.08-3.85,3.85-3.85c2.77,0,3.85,1.39,3.85,3.85V190H232.9l-20.1-46.21v-0.08h-0.15
		v42.36c0,2.46-1.08,3.85-3.85,3.85s-3.85-1.39-3.85-3.85V130h10.17l20.1,46.75h-0.08h0.15L235.36,133.93z"/>
	<path class="st1" d="M303.17,182.26c2,0,3.85,1.08,3.85,3.85c0,2.77-1.85,3.85-3.85,3.85h-34.2v-59.92h34.2
		c2,0,3.85,1.08,3.85,3.85c0,2.77-1.85,3.85-3.85,3.85h-26.49v18.41H288c2,0,3.85,1.08,3.85,3.85s-1.85,3.85-3.85,3.85h-11.32v18.41
		H303.17z"/>
	<path class="st1" d="M368.58,174.86c1.54,2,2.7,3.77,2.7,6.39c0,5.78-4.39,8.7-9.7,8.7h-16.95c-2.93,0-5.47-0.54-7.78-2.46
		c-2.08-1.7-3.62-4.47-3.62-7.16c0-2.46,1.39-4.62,4.08-4.62c2.23,0,3.62,1.85,3.62,3.93c0,2.31,1.23,2.62,3.39,2.62h16.71
		c0.62,0,2.54,0.23,2.54-0.92c0-0.62-1.08-1.77-1.39-2.23l-26.42-33.97c-1.62-2.08-2.54-3.62-2.54-6.32c0-3.08,1.46-5.7,4.08-7.39
		c2.16-1.39,3.93-1.39,6.39-1.39h16.33c2.93,0,5.39,0.62,7.62,2.54c2,1.77,3.62,4.62,3.62,7.32c0,2.46-1.23,4.47-4,4.47
		c-2.31,0-3.7-1.46-3.7-3.62c0-2.62-1.31-3-3.7-3h-16.33c-0.85,0-2.62-0.23-2.62,1.08c0,0.69,0.85,1.62,1.15,2.08L368.58,174.86z"/>
</g>
</svg>
