<svg xmlns="http://www.w3.org/2000/svg" width="512.002" height="512.002" viewBox="0 0 512.002 512.002"><defs><style>.a{fill:none;stroke:#666;stroke-miterlimit:10;stroke-width:2px;}.b{fill:#ff0303;}.c{fill:#fff;}</style></defs><title>grid_tunes_logo</title><rect x="0.001" y="0.001" width="512" height="512"/><line class="a" x1="64.001" y1="0.001" x2="64.001" y2="512.001"/><line class="a" x1="128.001" y1="512.001" x2="128.001" y2="0.001"/><line class="a" x1="192.001" y1="512.001" x2="192.001" y2="0.001"/><line class="a" x1="256.001" y1="0.001" x2="256.501" y2="512.001"/><line class="a" x1="320.001" y1="512.001" x2="320.001" y2="0.001"/><line class="a" x1="384.001" y1="0.001" x2="384.001" y2="512.001"/><line class="a" x1="448.001" y1="512.001" x2="448.001" y2="0.001"/><line class="a" x1="0.001" y1="448.001" x2="512.001" y2="448.001"/><line class="a" x1="512.001" y1="384.001" x2="0.001" y2="384.001"/><line class="a" x1="512.001" y1="320.001" x2="0.001" y2="320.001"/><line class="a" x1="0.001" y1="256.001" x2="512.001" y2="255.501"/><line class="a" x1="512.001" y1="192.001" x2="0.001" y2="192.001"/><line class="a" x1="0.001" y1="128.001" x2="512.001" y2="128.001"/><line class="a" x1="512.001" y1="64.001" x2="0.001" y2="64.001"/><circle class="b" cx="352.251" cy="352.001" r="29.5"/><polygon class="b" points="96.001 322.501 125.501 381.501 66.501 381.501 96.001 322.501"/><polygon class="b" points="253.181 352.001 194.181 381.501 194.181 322.501 253.181 352.001"/><path class="c" d="M99.856,170.574a3.856,3.856,0,1,1,0-7.712h15.193v15.193c0,7.48-5.013,12.108-12.339,12.108H89.445c-3.548,0-6.17-.617-8.869-3.085-3.085-2.776-3.625-5.63-3.625-9.486v-19.28c0-4.936,1.08-7.48,4.011-11.26l9.1-11.645c3.086-3.933,5.785-5.244,10.8-5.244h10.335a3.856,3.856,0,1,1,0,7.712h-9.254c-4.243,0-3.934-.077-6.479,3.162l-8.406,10.719c-2.39,3.009-2.39,6.248-2.39,10.026V176.9c0,4.241.924,5.553,5.32,5.553h12.263c2.776,0,5.089-.617,5.089-4.011v-7.866Z" transform="translate(0.001 0.001)"/><path class="c" d="M148.664,186.307c0,2.467-1.081,3.856-3.857,3.856s-3.856-1.389-3.856-3.856V130.163h25.913c6.092,0,12.185,4.318,12.185,11.182v5.322c0,7.249-6.016,10.951-12.185,10.951h-7.095l17.352,24.833c.848,1.156,1.928,2.622,1.928,4.087a3.7,3.7,0,0,1-3.933,3.625,4.081,4.081,0,0,1-3.394-2.16l-21.285-30.385h-1.773Zm0-36.4h17.12c2.16,0,5.552-.155,5.552-3.239v-5.322c0-3.084-3.161-3.47-5.475-3.47h-17.2Z" transform="translate(0.001 0.001)"/><path class="c" d="M227.856,182.125h11.337a3.856,3.856,0,0,1,0,7.712H208.807a3.856,3.856,0,0,1,0-7.712h11.337V137.549H208.807a3.856,3.856,0,0,1,0-7.712h30.386a3.856,3.856,0,0,1,0,7.712H227.856Z" transform="translate(0.001 0.001)"/><path class="c" d="M276.509,137.549h-2.854c-2.545,0-4.7-.926-4.7-3.856,0-2.776,2.083-3.856,4.473-3.856H286.3c6.015,0,9.022,2.468,11.645,7.712l6.786,13.573a17.826,17.826,0,0,1,.078,17.43l-7.019,14.036c-2.7,5.475-6.169,7.249-12.185,7.249h-12.8a3.856,3.856,0,0,1,0-7.712h3.7Zm7.712,44.576h1.465c3.239,0,4.01-.386,5.4-3.239l6.786-13.728a10.747,10.747,0,0,0,1.465-5.012c0-2.623-.848-4.088-1.927-6.324l-6.4-13.034c-1.62-3.316-2.314-3.239-5.861-3.239h-.926Z" transform="translate(0.001 0.001)"/><path class="c" d="M84.678,201.741v2.772c0,2.465-1.079,3.851-3.851,3.851s-3.851-1.386-3.851-3.851V194.038h38.048v10.475c0,2.465-1.078,3.851-3.851,3.851s-3.851-1.386-3.851-3.851v-2.772H99.851V250.11c0,2.465-1.078,3.852-3.851,3.852s-3.851-1.387-3.851-3.852V201.741Z" transform="translate(0.001 0.001)"/><path class="c" d="M153.453,253.962c-3.851,0-6.855-.925-9.551-3.929-2.541-2.85-2.926-5.623-2.926-9.166V197.89c0-2.465,1.078-3.852,3.851-3.852s3.851,1.387,3.851,3.852v42.977c0,4.314,1.309,5.392,4.775,5.392h13.094c3.466,0,4.775-1.078,4.775-5.392V197.89c0-2.465,1.079-3.852,3.851-3.852s3.851,1.387,3.851,3.852v42.977c0,3.543-.385,6.316-2.926,9.166-2.7,3-5.7,3.929-9.551,3.929Z" transform="translate(0.001 0.001)"/><path class="c" d="M235.361,197.928c0-2.465,1.078-3.851,3.851-3.851s3.851,1.386,3.851,3.851V254H232.9l-20.1-46.213v-.077h-.153v42.362c0,2.465-1.079,3.851-3.852,3.851s-3.851-1.386-3.851-3.851V194h10.168l20.1,46.752h.076Z" transform="translate(0.001 0.001)"/><path class="c" d="M303.173,246.259a3.852,3.852,0,0,1,0,7.7h-34.2V194.038h34.2a3.852,3.852,0,0,1,0,7.7h-26.5v18.408H288a3.851,3.851,0,0,1,0,7.7H276.678v18.408Z" transform="translate(0.001 0.001)"/><path class="c" d="M368.579,238.865c1.54,2,2.695,3.774,2.695,6.393,0,5.777-4.39,8.7-9.7,8.7H344.625a11.354,11.354,0,0,1-7.779-2.465,9.74,9.74,0,0,1-3.62-7.164c0-2.464,1.387-4.62,4.082-4.62a3.689,3.689,0,0,1,3.621,3.928c0,2.309,1.231,2.618,3.389,2.618h16.714c.615,0,2.541.232,2.541-.925,0-.615-1.078-1.77-1.387-2.232l-26.418-33.967c-1.618-2.079-2.542-3.621-2.542-6.316a8.581,8.581,0,0,1,4.082-7.394c2.157-1.387,3.928-1.387,6.392-1.387h16.33a10.91,10.91,0,0,1,7.625,2.542,10.492,10.492,0,0,1,3.619,7.317c0,2.465-1.231,4.467-4,4.467a3.417,3.417,0,0,1-3.7-3.619c0-2.618-1.31-3-3.7-3H343.547c-.848,0-2.618-.232-2.618,1.078,0,.693.846,1.617,1.154,2.079Z" transform="translate(0.001 0.001)"/></svg>